<?xml version="1.0" encoding="UTF-8"?>
<svg width="793.7" height="343.91" version="1.1" viewBox="0 0 793.7 343.91" xml:space="preserve" xmlns="http://www.w3.org/2000/svg" xmlns:cc="http://creativecommons.org/ns#" xmlns:dc="http://purl.org/dc/elements/1.1/" xmlns:rdf="http://www.w3.org/1999/02/22-rdf-syntax-ns#"><metadata><rdf:RDF><cc:Work rdf:about=""><dc:format>image/svg+xml</dc:format><dc:type rdf:resource="http://purl.org/dc/dcmitype/StillImage"/><dc:title/></cc:Work></rdf:RDF></metadata><defs><clipPath id="a"><path d="M 0,257.931 H 595.276 V 0 H 0 Z"/></clipPath></defs><g transform="matrix(1.3333 0 0 -1.3333 0 343.91)"><g transform="scale(1 -1)" fill="#1d1d1b" aria-label="NIGH CARD"><path d="m37.994-98.045v-63.236h12.423l25.881 42.229v-42.229h11.862v63.236h-12.811l-25.493-41.237v41.237z"/><path d="m102.23-98.045v-63.236h12.768v63.236z"/><path d="m163.4-121.29v-10.654h27.52v25.191q-4.0116 3.8821-11.646 6.8584-7.5917 2.9332-15.399 2.9332-9.921 0-17.297-4.141-7.3761-4.1841-11.086-11.905-3.7096-7.7643-3.7096-16.866 0-9.8779 4.1409-17.556 4.141-7.678 12.121-11.776 6.082-3.1488 15.14-3.1488 11.776 0 18.375 4.9605 6.6428 4.9174 8.5407 13.631l-12.682 2.3724q-1.3372-4.6586-5.0468-7.3329-3.6665-2.7175-9.1877-2.7175-8.3682 0-13.329 5.3056-4.9174 5.3056-4.9174 15.744 0 11.258 5.0036 16.909 5.0036 5.6075 13.113 5.6075 4.0116 0 8.0231-1.5529 4.0547-1.596 6.9447-3.839v-8.0231z"/><path d="m204.34-98.045v-63.236h12.768v24.889h25.018v-24.889h12.768v63.236h-12.768v-27.649h-25.018v27.649z"/><path d="m374.35-121.29 12.38 3.9253q-2.8469 10.352-9.4897 15.399-6.5996 5.0036-16.779 5.0036-12.595 0-20.705-8.5838-8.1094-8.627-8.1094-23.552 0-15.787 8.1525-24.501 8.1525-8.7564 21.438-8.7564 11.603 0 18.85 6.8584 4.3135 4.0547 6.4702 11.646l-12.639 3.0194q-1.1215-4.9174-4.7017-7.7643-3.537-2.8469-8.627-2.8469-7.031 0-11.431 5.0468-4.3566 5.0468-4.3566 16.348 0 11.991 4.3135 17.081 4.3135 5.0899 11.215 5.0899 5.0899 0 8.7564-3.2351 3.6665-3.2351 5.2624-10.18z"/><path d="m455.67-98.045h-13.889l-5.5213-14.364h-25.277l-5.2193 14.364h-13.544l24.63-63.236h13.501zm-23.508-25.018-8.7132-23.465-8.5407 23.465z"/><path d="m460-98.045v-63.236h26.873q10.137 0 14.709 1.7254 4.6154 1.6823 7.3761 6.0389t2.7606 9.9642q0 7.1172-4.1841 11.776-4.1841 4.6154-12.509 5.8232 4.141 2.4156 6.8153 5.3056 2.7175 2.89 7.2898 10.266l7.7211 12.337h-15.27l-9.2309-13.76q-4.9174-7.3761-6.729-9.274-1.8117-1.9411-3.839-2.6312-2.0273-0.73329-6.4271-0.73329h-2.5881v26.399zm12.768-36.492h9.4465q9.1877 0 11.474-0.77642 2.2862-0.77643 3.5802-2.6744 1.294-1.8979 1.294-4.7448 0-3.192-1.7254-5.133-1.6823-1.9842-4.788-2.5018-1.5528-0.21568-9.3171-0.21568h-9.9642z"/><path d="m519.81-161.28h23.336q7.8937 0 12.035 1.2078 5.5644 1.6391 9.5328 5.8232 3.9684 4.1841 6.0389 10.266 2.0705 6.0389 2.0705 14.925 0 7.8074-1.9411 13.458-2.3724 6.9016-6.7722 11.172-3.3214 3.2351-8.972 5.0468-4.2272 1.3372-11.301 1.3372h-24.026zm12.768 10.697v41.884h9.5328q5.3487 0 7.7211-0.60389 3.1057-0.77643 5.133-2.6312 2.0705-1.8548 3.3645-6.082 1.294-4.2704 1.294-11.603 0-7.3329-1.294-11.258-1.294-3.9253-3.6233-6.1252-2.3293-2.1999-5.9095-2.9763-2.6744-0.60389-10.482-0.60389z"/></g><g clip-path="url(#a)"><g transform="translate(205.06 41.451)"><path d="m0 0c-0.095 0.049-0.19 0.098-0.286 0.147-0.118-0.312-0.236-0.623-0.354-0.935 0.067-0.028 0.134-0.056 0.201-0.084 0.146 0.29 0.293 0.581 0.439 0.872m52.703 151.54c1.951-1.717 3.46-2.352 4.881-2.076-1.59 0.696-2.848 1.854-4.881 2.076m7.355-107.67c0.071-0.09 0.143-0.179 0.214-0.269 0.701 0.487 1.391 0.99 2.105 1.455 0.721 0.47 1.71 0.636 2.042 1.912-2.311-0.16-3.011-2.07-4.361-3.098m14.566 98.533c0.18 1.289-0.278 1.847-1.143 2.17-1.015 0.379-2.017 0.792-3.031 1.17-0.325 0.121-0.672 0.178-1.009 0.265-0.035-0.08-0.07-0.159-0.106-0.238 1.707-1.086 3.413-2.173 5.289-3.367m-16.237-104.72c0.355 0.208 0.549 0.285 0.697 0.414 1.656 1.428 2.705 3.337 3.969 5.072 0.284 0.39 0.452 0.88-0.035 1.292-2.367-0.331-4.401-3.292-4.631-6.778m6.148 102.39c1.643-1.287 2.979-2.96 4.936-3.942-0.818 1.472-0.682 3.354-2.073 4.47-1.69 1.357-3.432 2.655-5.205 3.904-1.236 0.871-2.549 1.638-3.853 2.409-1.133 0.67-2.322 1.228-3.798 1.681 1.152-2.301 3.285-3.129 4.871-4.544m-53.139 13.738c0.084 0.627 0.371 1.236 0.553 1.846-0.803 0.318-1.525 0.118-2.262-0.033-1.75-0.359-3.494-0.835-5.264-0.989-2.179-0.19-6.363-1.778-5.903-2.418s1.343 0.125 1.721-0.431-1.166-1.488-0.592-2.584c0.303-0.195 1.07-0.257 1.234 0 0.163 0.257-0.641 1.164-0.383 1.27 0.258 0.105 0.426-0.298 0.572-0.31 2.039-0.17 4.06-0.038 6.007 0.614 0 0 4.429 0.981 4.317 3.035m66.531-7.507c0.357-0.217 0.716-0.432 1.071-0.653 1.464-0.91 2.972-1.763 3.984-3.234 1.121-1.631 1.749-1.668 3.155-0.202 0.098 0.102 0.126 0.27 0.194 0.426-0.276 0.214-0.519 0.403-0.776 0.603 0.414 0.082 0.786 0.156 1.159 0.23 0.015 0.118 0.029 0.236 0.044 0.355-0.589 0.176-1.18 0.507-1.766 0.499-1.506-0.019-2.866 0.414-4.227 0.979-0.929 0.386-1.912 0.645-2.871 0.961-0.132 0.145-0.238 0.358-0.403 0.424-2.755 1.112-5.515 2.21-8.283 3.292-0.27 0.106-0.593 0.079-1.248 0.154 0.53-0.661 0.795-1.14 1.189-1.459 1.892-1.53 3.761-3.099 5.759-4.48 0.951-0.656 2.193-0.521 3.574-0.327-0.546 0.845-0.967 1.497-1.436 2.223 0.37 0.087 0.625 0.148 0.881 0.209m-20.224 6.212c-0.993 0.701-3.714 1.012-4.266 0.399-0.034-0.383-0.075-0.852-0.13-1.474 1.511-0.511 2.983-1.008 4.455-1.505-0.566 0.793-1.259 1.332-0.981 2.41 0.308 0.056 0.613 0.111 0.919 0.166 2.434-2.948 6.505-6.205 8.828-5.979-0.61 0.554-1.149 1.044-1.712 1.556 0.249 0.115 0.415 0.191 0.645 0.298-2.203 2.294-5.093 3-7.758 4.129m15.394-93.489s-0.192 6.286 1.929 9.265c2.121 2.98 8.655 2.057 9.655 7.965 1 5.91 0.524 4.313-0.519 9.268s0.803 5.061 0.401 8.177c-0.401 3.116-5.322 3.806-5.646 5.625-0.089 0.503-0.013 1.035-0.013 1.729 0.508-0.197 0.838-0.343 1.18-0.455 1.132-0.373 1.647-0.068 1.73 1.146 0.052 0.745-0.077 1.502-0.133 2.399 0.537 0.22 1.238 1.401 2.061 0.847 0.821-0.555-0.671-0.903-0.844-1.136 0.114-0.457 0.236-0.872 0.319-1.295 0.162-0.826-0.247-1.736 0.527-2.478 0.876-0.839 1.227-0.969 2.217-0.415 0.328 0.183 0.613 0.442 0.965 0.703v4.006c0.488 0.367 1.045 0.688 1.478 1.132 1.043 1.067 1.159 2.375 0.898 3.787-0.266 1.437-0.451 2.888-0.668 4.333-0.033 0.214-0.13 0.469-0.054 0.641 0.914 2.055 0.508 4.267 0.796 6.395 0.02 0.151 0.126 0.291 0.215 0.484 1.583 0.22 2.785-1.038 4.416-0.92-0.552 0.329-1.066 0.775-1.662 0.963-1.84 0.582-2.617 1.786-2.446 3.679 0.043 0.479-0.148 1.008-0.012 1.446 0.576 1.854-0.565 2.921-1.654 4.104-0.491 0.535-0.929 0.75-1.463 0.551-0.885 1.204-1.29 2.646-2.424 3.46-1.737 1.246-3.062 3.312-5.786 3.124 0.164-0.356 0.213-0.701 0.412-0.854 0.773-0.594 1.619-1.091 2.385-1.692 0.534-0.419 1.569-1.212 1.465-1.43-0.053-0.112-0.364-0.28-0.682-0.41-0.493-0.201-0.696-0.126-0.711-0.185-0.035-0.215 0.074-0.212 0.178-0.319 0.133-0.095 0.572-0.09 0.594-0.088 0.023 3e-3 0.018-0.039 0.018-0.039 0.089-0.962 1.084-1.013 1.483-1.733 0.253-0.456 1.022-0.968 0.992-1.211s-1.999-1.715-3.332-0.537c-0.814 0.719-1.63 1.44-2.482 2.114-1.112 0.879-1.411 0.821-2.213-0.294-0.032-0.044-0.055-0.093-0.087-0.137-1.545-2.151-4.068-2.258-5.578-0.12-1.242 1.757-2.762 3.2-4.45 4.48-3.594 2.726-7.233 5.392-10.824 8.122-1.412 1.073-2.829 1.507-4.538 0.711-0.763-0.355-1.645-0.537-2.409 0.239 0.811 0.718 1.564 1.385 2.339 2.07-0.374 0.448-0.658 0.848-1.002 1.185-0.301 0.295-0.634 0.616-1.016 0.756-1.159 0.426-2.33 0.854-3.531 1.129-2.218 0.506-4.448 0.993-6.696 1.327-3.269 0.487-6.557 0.827-9.83 1.308-3.201 0.47-6.492 0.294-9.738 0.498-2.741 0.173-4.98-0.87-7.319-2.196-2.771-1.572-5.836-2.638-8.812-3.828-0.723-0.289-1.61-0.33-2.395-0.243-0.52 0.058-1.127 0.44-1.46 0.862-1.088 1.382-2.105 1.802-3.777 1.379-0.788-0.199-1.578-0.414-2.38-0.527-0.941-0.134-1.86 0.025-2.612 0.662-1.222 1.033-2.514 0.929-3.789 0.204-1.935-1.102-3.815-2.3-5.748-3.406-0.793-0.455-1.639-0.848-2.506-1.129-0.488-0.158-1.089-0.122-1.603-0.011-1.072 0.232-1.259 0.764-0.727 1.727 0.177 0.321 0.317 0.662 0.547 1.148 0.379 0.891 1.259 1.135 1.259 1.135 0.416 0.068 0.819 0.295 1.197 0.506 1.23 0.686 2.437 1.24 3.942 1.25 1.224 8e-3 3.324 0.741 3.192 1.746-0.131 1.005-1.639 0.259-2.476 0.291 0 0-1.905 0.054-1.955 1.12-0.01 0.064-0.051 0.305-1e-3 0.361 0.855 0.21 1.759 0.063 2.594-0.082 1.381-0.24 2.364 0.062 3.186 1.277 0.575 0.852 1.196 1.774 2.538 1.778 0.546 1e-3 1.071 0.661 1.64 0.955 4.255 2.196 8.836 2.789 13.549 2.751 0.591-5e-3 1.228-8e-3 1.764 0.196 0.711 0.271 1.347 0.274 2.054 0.059 0.476-0.144 0.995-0.152 1.494-0.221 0.025 0.128 0.051 0.257 0.076 0.385-0.547 0.149-1.087 0.333-1.641 0.441-4.233 0.83-8.509 1.123-12.817 0.988-4.498-0.14-8.855 0.915-13.259 1.57-0.518 0.077-1.049 0.329-1.481 0.633-0.247 0.174-0.471 0.658-0.404 0.927 0.071 0.288 0.469 0.634 0.776 0.694 0.519 0.102 1.084 0.047 1.619-0.024 4.258-0.556 8.513-1.142 12.772-1.695 0.868-0.112 1.779-0.434 2.832 0.279-0.845 0.448-1.522 0.808-2.22 1.178 0.334 0.723 0.879 0.511 1.309 0.441 2.307-0.372 4.62-0.723 6.908-1.196 4.636-0.959 9.31-1.624 14.024-2.01 1.167-0.095 2.348-0.014 3.597-0.014-2.155 1.372-4.578 1.628-6.916 2.102-5.487 1.112-10.99 2.148-16.491 3.196-1.202 0.229-2.42 0.38-3.638 0.748 1.532 0.963 3.24 1.324 4.927 1.135 4.368-0.489 8.74-0.945 12.931-2.506 2.946-1.096 6.025-1.836 9.058-2.687 0.596-0.168 1.254-0.115 2.274-0.193-1.334 1.498-2.68 2.253-4.181 2.653-1.546 0.411-2.879 1.456-4.593 1.407-0.566-0.016-1.309 0.26-1.183 1.224 0.025 0.191-0.377 0.471-0.621 0.657-0.377 0.288-0.788 0.53-1.234 0.824 0.747 0.43 2.946 0.448 5.232 4e-3 1.701-0.331 3.377-0.784 5.108-1.058-1.209 0.715-2.534 1.124-3.887 1.457-0.633 0.156-1.29 0.243-1.897 0.465-0.219 0.08-0.326 0.466-0.483 0.712 0.219 0.122 0.441 0.349 0.659 0.346 0.428-8e-3 0.856-0.133 1.28-0.228 3.412-0.759 6.685-1.935 9.891-3.307 5.412-2.317 10.99-4.148 16.666-5.69 0.795-0.216 1.683-0.27 1.505-1.466-0.013-0.083 0.07-0.225 0.15-0.271 1.537-0.897 2.631-2.509 4.482-2.883 1.127-0.229 2.283-0.313 3.431-0.463-0.244-0.172-0.563-0.4-0.883-0.627 1.18-0.296 2.23-0.76 3.47-0.622 0.743 0.082 1.557-0.475 2.479-0.793 0.079 0.085 0.284 0.306 0.587 0.634 1.512-1.001 3.037-2.013 4.566-3.02 0.18-0.118 0.369-0.229 0.567-0.312 3.037-1.271 6.042-2.628 9.124-3.776 2.972-1.107 5.982-2.17 9.056-2.923 2.084-0.511 4.07-1.025 5.855-2.273 1.015-0.71 2.307-0.6 3.468-0.47 0.484 0.053 0.898 0.734 1.276 1.237 1.125 0.337 2.532-0.013 3.417 1.07 0.374 0.458 0.451 1.16 0.715 1.894-1.29 0.414-2.4 0.771-3.511 1.127 0.973 0.416 2.043-0.286 2.886 0.552-0.5 1.208-0.922 1.542-2.035 1.16-1.199-0.411-1.95-0.011-2.69 0.866-0.91 1.081-1.857 2.138-2.869 3.122-1.087 1.058-1.476 0.962-2.481-0.219-0.6-0.705-1.222-1.364-0.71-2.723-0.843 0.341-1.376 0.539-1.894 0.772-1.365 0.615-2.756 0.748-4.27 0.722-1.35-0.023-2.833 0.35-4.036 0.974-1.617 0.84-3.019 2.092-4.518 3.161-1.058 0.753-2.047 1.65-3.198 2.217-6.563 3.241-12.636 7.255-18.544 11.537-0.51 0.37-0.946 0.841-1.61 1.44-0.366 0.517 2.924 2.044 0.655 4.721 0 0-0.522 0.71-0.519 0.95 3e-3 0.241 1.044 0.419 1.535 0.539 1.015 0.248 1.235 0.584 0.754 1.41-0.286 0.491-0.954 0.91-0.279 1.509 0.631 0.559 1.23 0.105 1.762-0.254 0.627-0.423 1.204-0.919 1.815-1.367 2.878-2.109 5.76-4.212 8.641-6.316l-0.098 0.125c1.91-1.769 3.832-3.526 5.727-5.31 3.653-3.438 7.822-6.231 11.704-9.382 1.559-1.264 3.409-1.988 5.274-2.627 0.566-0.194 1.357-0.155 1.899 0.094 1.059 0.484 1.871 0.251 2.71-0.405 0.445-0.348 0.928-0.779 1.651-0.25-0.758 1.439-2.099 2.185-3.266 3.112-1.102 0.876-2.366 1.599-3.272 3.157 1.483-0.159 1.688-1.33 2.433-1.841 0.849-0.581 1.607-1.296 2.424-1.927 0.77-0.594 1.567-1.153 2.441-1.642-0.505 1.257-1.48 2.142-2.418 3.03-0.932 0.883-1.962 1.663-2.881 2.598 2.136-0.536 4.336-0.78 5.513-3.209 0.672-1.384 1.854-2.528 2.842-3.751 0.545-0.675 1.144-1.311 1.756-1.928 0.901-0.909 1.239-1.877 0.867-3.192-0.405-1.428-0.045-1.777 1.407-2.083 1.304-0.276 2.368 0.071 3.22 1.066 1.06 1.236 2.085 2.502 3.153 3.731 0.379 0.436 0.82 0.821 1.261 1.196 0.617 0.526 1.3 0.979 1.878 1.541 0.638 0.62 1.322 0.901 2.209 0.743 0.791-0.141 1.592-0.254 2.393-0.307 0.778-0.051 1.561-0.011 2.413-0.011-1.44-1.023-3.374-1.288-4.528-2.658l0.225-0.395c0.255 0.027 0.512 0.04 0.765 0.084 0.2 0.034 0.394 0.104 0.743 0.2-0.288-1.913-2.356-2.51-2.753-4.486 0.707 0.3 1.328 0.448 1.814 0.788 2.089 1.469 4.135 3 6.209 4.492 0.541 0.39 0.825 0.827 0.622 1.519-0.205 0.699 0.188 1.115 0.75 1.456 2.697 1.633 5.386 3.279 8.081 4.918 0.184 0.113 0.38 0.211 0.577 0.302 1.308 0.607 1.596 0.527 2.414-0.685 0.119-0.175 0.195-0.381 0.303-0.597-0.223-0.841-0.953-1.175-1.586-1.546-3.658-2.142-7.308-4.296-11.011-6.357-2.445-1.361-4.694-2.988-6.632-4.969-1.05-1.072-2-2.229-3.185-3.178-0.473-0.38-0.757-0.997-1.359-1.824 0.749 0.115 1.116 0.097 1.418 0.23 1.741 0.767 3.475 1.552 5.193 2.368 0.74 0.35 1.236 0.96 1.77 1.596 0.709 0.845 1.66 1.62 2.667 2.042 0.957 0.4 1.795 0.969 2.708 1.392 4.41 2.042 8.84 4.048 13.33 5.905 1.778 0.736 3.731 1.051 5.598 1.555 0.648-0.747 0.478-1.471 0-1.991-0.531-0.575-1.201-1.209-1.919-1.394-4.429-1.14-8.413-3.279-12.352-5.472-2.42-1.348-4.985-2.144-7.628-2.747-1.74-0.397-3.305-1.002-4.63-2.223-0.89-0.821-1.767-1.7-2.788-2.33-1.607-0.991-3.332-1.791-5.002-2.681-0.274-0.146-0.52-0.345-0.705-0.688 1.273 0.312 2.539 0.647 3.82 0.922 0.466 0.1 0.962 0.07 1.445 0.076 0.648 7e-3 1.296 1e-3 1.943-0.02 0.897-0.028 1.401 0.541 1.751 1.23 1.086 2.125 1.621 2.483 3.878 1.902 1.313-0.338 2.547-0.432 3.828-0.011 0.707 0.233 1.426 0.431 2.282 0.687 0.392-0.57 0.936-0.433 1.712-0.2 1.801 0.538 3.44 1.571 5.413 1.646 0.748 0.028 1.476 0.637 2.208 0.993 2.627 1.277 5.378 2.359 7.841 3.901 2.092 1.31 4.171 2.776 5.74 4.784 0.161 0.207 0.387 0.364 0.651 0.294 0.643 0.05 1.284 0.115 1.927 0.145 0.516 0.024 1.035 5e-3 1.803 5e-3 -0.276-0.378-0.397-0.529-0.5-0.691-0.08-0.128-0.137-0.269-0.23-0.456 0.214-0.021 0.369-0.067 0.516-0.046 1.314 0.191 2.49 0.706 3.592 1.451 1.078 0.728 1.102 0.691 2.364 0.5-0.255-1.093-0.983-2.19-0.207-3.231-0.358-0.59-0.862-1.067-0.928-1.599-0.186-1.481-1.309-1.929-2.391-1.973-1.497-0.06-2.738-0.616-3.988-1.274-4.277-2.251-8.557-4.499-12.818-6.779-0.639-0.343-1.19-0.851-1.794-1.292 0.94-1.144 0.934 0.164 1.415 0.312 0.999-0.617 2.037-0.078 3.062 0.106 2.071 0.371 4.12 0.854 6.187 1.25 0.272 0.052 0.591-0.135 0.942-0.515-0.782-0.239-1.561-0.486-2.347-0.716-1.192-0.347-2.387-0.681-3.581-1.021-0.051-0.016-0.099-0.066-0.148-0.065-2.606 0.02-4.55-1.748-6.855-2.544-2.097-0.723-4.182-1.491-6.235-2.333-2.557-1.05-5.077-2.194-7.608-3.307-0.073-0.031-0.094-0.176-0.139-0.268-1.778-0.23-4.685-1.89-4.11-2.327 0.574-0.438 4.114 0.332 4.114 0.332 1.073 0.152 2.173 0.263 3.197 0.592 2.742 0.88 5.443 1.889 8.178 2.792 0.588 0.193 1.303 0.34 1.871 0.185 1.341-0.364 2.466 0.096 3.27 0.964 1.032 1.113 2.268 1.825 3.544 2.544 3.084 1.741 6.225 3.347 9.723 4.097 0.526 0.113 1.068 0.154 1.605 0.189 0.201 0.012 0.572-0.054 0.589-0.142 0.261-1.257 1.381-0.866 2.116-1.043 2.096-0.505 4.216-0.957 6.351-1.244 1.486-0.2 3.014-0.134 4.522-0.109 1.934 0.031 3.868 0.14 5.803 0.216 0.521 0.02 1.003 0.127 1.068 0.76 0.097 0.934 0.761 0.702 1.298 0.766 0.651-1.679 0.14-3.266-1.399-4.034-0.809-0.403-1.741-0.681-2.64-0.763-5.198-0.471-10.396-1.057-15.627-0.618-2.108 0.176-4.125-0.11-6.069-0.916-2.964-1.228-5.903-2.515-8.881-3.707-3.835-1.537-7.681-3.05-11.555-4.484-2.618-0.969-5.367-1.339-8.153-1.505-1.621-0.096-3.232-0.352-4.843-0.559-0.808-0.104-1.105-0.469-1.146-1.406-0.043-0.968-0.437-2.049-1.014-2.834-0.93-1.264-1.256-2.743-1.312-4.12-0.065-1.654-0.616-3.069-1.193-4.514-0.594-1.488-1.015-2.982-0.861-4.598 0.026-0.27-0.023-0.569 0.077-0.806 0.362-0.853 0.116-1.588-0.35-2.3-4e-3 -4e-3 -0.033-0.036-0.087-0.097l-1.529-1.016 0.074 0.044c-0.586-0.039-0.899 0.176-0.927 0.821-0.137 3.101-0.397 6.213 1.27 9.062 0.05 0.086 0.037 0.209 0.069 0.424-0.534 0.265-1.097 0.543-1.854 0.918 1.022 0.675 1.643-0.324 2.387-0.046 0.436 0.643 0.145 1.134-0.399 1.489-0.478 0.311-1.022 0.52-1.498 1.03 0.439 0.047 0.878 0.094 1.54 0.166-0.482 2.646 1.224 4.925 1.164 7.482l-0.434 0.164c-0.425-0.742-0.849-1.484-1.401-2.449-0.33 0.911-0.578 1.594-0.894 2.466-0.41-0.188-0.932-0.258-1.1-0.538-0.511-0.859-1.45-1.351-1.725-2.466-0.185-0.757-1.014-1.357-1.563-2.035 0.316-0.442 0.615-0.86 1.039-1.454-0.693-0.047-1.185-0.08-2.121-0.144 0.816-0.581 1.308-0.963 1.83-1.297 1.536-0.982 1.843-2.66 0.611-3.944-0.455-0.475-0.652-0.942-0.717-1.56-0.147-1.399-0.338-2.793-0.525-4.187-0.22-1.628-0.732-3.158-1.54-4.595-0.18-0.319-0.32-0.723-0.305-1.082 0.073-1.834-0.208-3.788 1.506-5.146-0.098-1.006 1.015-1.366 1.187-2.251 0.175-0.896 0.491-1.763 0.691-2.655 0.437-1.954 0.927-3.904 1.225-5.88 0.167-1.109 3e-3 -2.269-0.032-3.406-0.058-1.867-0.303-3.748-0.159-5.598 0.166-2.131 0.439-4.277 1.201-6.319 0.398-1.062 0.08-2.468 0.804-3.305 0.724-0.838 1.016-1.877 1.48-2.838 1.186-2.452 2.029-7.589 1.849-7.828-0.18-0.238-0.645-0.246-0.946-0.276-1.552-0.152-2.205-0.872-2.323-2.549-0.026-0.366-0.041-0.883-0.27-1.058-0.972-0.74-0.597-1.644-0.44-2.533 0.237-1.345 0.454-2.642-0.381-3.934-0.313-0.484-0.217-1.264-0.221-1.909-0.014-2.392 0.119-4.79-0.013-7.175-0.141-2.544-0.245-5.149-0.892-7.587-0.419-1.581-0.524-3.195-0.976-4.744-0.132-0.452-0.349-0.959-0.689-1.254-0.864-0.75-1.238-1.752-1.721-2.728-1.494-3.02-2.938-6.074-4.621-8.988-2.351-4.072-5.691-7.255-9.59-9.863-3.722-2.49-7.71-4.484-11.77-6.342-0.592-0.271-1.208-0.523-1.84-0.659-0.595-0.128-1.225-0.091-2.18-0.146 0.44 0.584 0.603 0.935 0.876 1.137 1.515 1.121 2.838 2.485 4.766 3.045 1.052 0.305 1.948 1.146 2.922 1.732 1.426 0.858 2.788 1.875 4.307 2.514 2.162 0.911 3.92 2.305 5.556 3.904 0.333 0.326 0.653 0.803 0.711 1.246 0.152 1.138 0.86 1.942 1.417 2.858 1.099 1.809 2.129 3.66 3.167 5.506 0.152 0.27 0.195 0.602 0.28 0.878-1.776 1.255-1.776 1.255-0.881 3.906 0.689-0.556 1.319-1.064 2.105-1.698v5.622c-0.769-0.215-1.308-0.365-1.847-0.515-0.291 1.169 0.313 5.749 1.086 8.23 1.637 0.096 1.944 0.342 2.092 1.974 0.098 1.081 0.043 2.174 0.091 3.261 0.069 1.572 0.133 3.145 0.27 4.711 0.072 0.82-0.06 1.378-0.979 1.552-0.686 0.13-1.363 0.324-2.028 0.54-0.344 0.112-0.692 0.286-0.969 0.516-0.415 0.347-0.751 0.788-1.153 1.152-0.954 0.859-1.358 0.86-2.419 0.071-0.713-0.531-1.29-1.3-2.428-1.201 1.01 1.013 1.974 2.08 3.055 3.011 0.35 0.303 1.141 0.507 1.496 0.317 1.137-0.609 2.605-0.32 3.561-1.367 0.12-0.132 0.392-0.123 0.599-0.182 0.842 0.827 0.036 1.673 0.08 2.259 0.685 0.78 1.221 1.429 1.798 2.04 0.608 0.642 1.426 0.444 2.158 0.394 0.711-0.05 1.221 0.876 1.037 1.075-0.186 0.199-0.7-0.746-1.109-0.704-0.41 0.042-0.461 0.779-0.761 1.019-1.09 0.869-1.429 2.047-1.265 3.32 0.315 2.441-0.528 4.605-1.438 6.76-0.182 0.433-0.549 0.823-0.917 1.132-0.464 0.392-0.921 0.445-1.358-0.184-0.417-0.602-0.959-1.849-1.676-1.844s-0.932 2.022-1.5 3.255c-0.514-0.902-0.846-1.436-1.132-1.993-0.566-1.102-1.113-2.215-1.659-3.328-1.413-2.88-2.886-5.73-3.73-8.856-0.381-1.409-0.923-2.775-1.388-4.157-0.255-0.32-0.515-0.645-0.775-0.969-0.873-1.199-1.654-2.49-3.209-3.171 0.179 1.203 0.324 2.325 0.526 3.438 0.053 0.294 0.215 0.647 0.443 0.816 0.875 0.645 1.148 1.55 1.239 2.553 0.213 2.363 1.218 4.494 1.971 6.696 0.13 0.382 0.467 0.703 0.744 1.022 0.721 0.826 0.784 1.055 0.524 2.424-0.959 0.254-1.7-0.31-2.254-0.907-0.878-0.948-1.722-1.983-2.325-3.116-0.68-1.276-1.77-2.137-2.634-3.215-0.761-0.949-1.388-2.046-1.878-3.163-1.247-2.845-3.022-5.365-4.755-7.903-1.042-1.526-1.954-3.084-2.673-5.152 0.518 0.18 0.886 0.197 1.073 0.39 2.883 2.963 5.557 6.102 7.868 9.539 0.357 0.532 0.742 1.046 1.111 1.563 1.312-0.848 1.295-0.845 1.061-2.074-0.308-1.625-0.817-3.103-2.107-4.282-1.238-1.132-2.351-2.405-3.471-3.659-1.229-1.376-2.436-2.776-3.594-4.212-2.014-2.495-3.958-5.046-5.987-7.529-0.753-0.921-1.59-1.807-2.523-2.54-0.837-0.657-1.815-1.193-2.812-1.574-0.792-0.303-1.71-0.316-2.464 0.615 0.912 1.186 1.815 2.36 2.82 3.668-1.483 0.188-2.05-1.401-3.356-1.44-0.16 0.828 0.187 1.471 0.706 2.047 0.72 0.797 1.002 1.742 1.224 2.782 0.198 0.924 0.637 1.843 1.161 2.638 1.015 1.541 2.181 2.982 3.248 4.49 0.302 0.426 0.476 0.942 0.709 1.417 0.705 0.237 0.975 0.824 1.189 1.453-0.575-0.348-1.105-0.732-1.154-1.484-0.142-0.055-0.322-0.073-0.417-0.172-0.224-0.234-0.433-0.491-0.602-0.767-3.094-5.075-7.691-8.671-12.198-12.346-1.998-1.629-4.228-2.871-6.777-3.456-1.466-0.338-2.91-0.364-4.31 0.289-1.239 0.579-2.539 0.606-3.834 0.299-1.002-0.238-2.032-0.479-2.951-0.922-3.233-1.557-6.496-3.075-9.614-4.843-4.884-2.769-8.307-6.969-10.759-11.948-0.68-1.383-0.955-2.963-1.424-4.45-0.6-1.904-1.631-3.557-3.011-4.984-1.624-1.679-3.233-3.378-4.943-4.967-1.409-1.307-1.57-1.278-3.825-1.372 0.217 0.369 0.38 0.674 0.57 0.961 0.173 0.262 0.375 0.505 0.616 0.823-0.392 0.04-0.678 0.069-1.227 0.125 0.397 0.345 0.61 0.534 0.828 0.717 0.907 0.76 1.871 1.461 2.709 2.291 0.815 0.807 1.171 1.805 0.732 2.987-0.125 0.333-0.147 0.771-0.047 1.11 0.371 1.251 0.739 2.511 1.247 3.708 0.566 1.332 1.124 1.346 2.103 8e-3 0.325 0.713 0.604 1.341 0.894 1.963 2.216 4.741 5.158 8.94 9.254 12.257 0.529 0.429 1.195 0.687 1.785 1.045 1.194 0.722 2.361 1.49 3.574 2.177 1.029 0.584 2.099 1.101 3.168 1.612 2.049 0.98 4.107 1.941 6.168 2.898 1.614 0.749 3.176 1.657 5.036 1.684 0.154 2e-3 0.312 0.089 0.461 0.156 1.919 0.865 3.834 1.74 5.756 2.597 0.529 0.235 1.081 0.417 1.657 0.637 0.557-1.262-0.704-1.938-0.749-3.186 2.321 0.887 4.024 2.186 5.03 4.275 0.156 0.323-0.125 0.857-0.225 1.411 0.18 0.052 0.468 0.184 0.766 0.214 1.93 0.191 3.431 1.191 4.831 2.442 1.54 1.377 3.122 2.708 4.701 4.041 0.694 0.586 1.416 1.056 2.34 1.355 0.932 0.301 1.74 1.073 2.522 1.733 2.775 2.345 5.541 4.701 8.253 7.116 0.793 0.706 1.36 1.66 2.099 2.435 0.745 0.783 1.471 1.672 2.391 2.181 1.586 0.879 2.11 2.391 2.785 3.85 0.204 0.44 0.334 0.916 0.552 1.348 0.426 0.844 0.653 1.698 0.507 2.664-0.197 1.311 0.018 2.558 0.545 3.805 0.373 0.884 0.839 1.867 0.204 3.137-1.185-1.876-1.215-3.959-2.17-5.852-0.627 0.166-1.227 0.324-1.961 0.518-0.758-2.688-1.547-5.484-2.328-8.253-1.639 0.211-2.259 0.853-2.033 1.989" fill="#1d1d1b"/></g><g transform="translate(500.02 215.36)"><path d="m0 0c1.065-0.894-0.423-0.6-0.577-0.819 0.899-0.422 1.734-0.859 2.606-1.206 0.692-0.275 1.414-0.524 2.147-0.631 1.366-0.2 2.75-0.274 4.124-0.428 1.183-0.132 2.387-0.203 3.536-0.485 1.141-0.281 2.225-0.79 3.332-1.202 0.381-0.143 0.759-0.293 1.138-0.691-1.473-0.036-2.945-0.097-4.417-0.101-2.936-0.011-5.872 0.065-8.806-0.011-1.119-0.029-2.229-0.378-3.36-0.734 0.355-0.039 0.71-0.106 1.066-0.112 4.94-0.099 9.882-0.17 14.821-0.3 0.889-0.023 1.579 0.076 1.838 1.093 0.717-0.237 1.582 0.163 2.069-0.683 0.986 0.479 1.282-0.566 1.892-0.89 1.408-0.748 2.28-0.733 3.569 0.262 0.376 0.291 0.645 0.638 1.272 0.326 0.302-0.15 1.188 0.43 1.434 0.415 0.245-0.015 0.133-0.67 0.329-0.723 1.501-1.441 3.961-0.551 4.091-0.561 0.131-0.011 1.445-0.709 1.794-0.443l1.408 2.25c2.762 0.27 3.162-0.814 5.382-1.742 1.166-0.487 2.249-1.171 3.375-1.754 0.743-0.384 1.472-0.663 2.187 0.113 0.116 0.126 1.381 0.892 1.722 0.674 0.34-0.218-1.48-2.721-2.627-2.873-0.835-0.11-1.714 0.049-2.565 0.156-0.304 0.038-0.588 0.269-0.877 0.42-2.66 1.386-2.732 1.388-4.949-0.653-0.836-0.769-1.769-0.747-2.74-0.427-0.618 0.203-1.196 0.525-1.81 0.746-1.266 0.459-2.402 0.297-3.522-0.55-0.713-0.54-1.59-0.99-2.457-1.17-1.752-0.364-3.546-0.692-5.327-0.719-3.238-0.049-6.392-0.566-9.53-1.253-3.255-0.712-6.547-1.011-9.871-1.155-1.393-0.061-2.799-0.38-4.148-0.763-1.986-0.563-3.932-1.278-5.889-1.946-1.597-0.545-3.197-0.603-4.811-0.1-7.989 2.489-16.099 2.28-24.246 1.058-4.197-0.63-8.368-1.455-12.58-1.952-2.684-0.316-5.42-0.22-8.134-0.247-0.665-7e-3 -1.417 0.083-1.761 1.113 0.581 0.144 1.079 0.358 1.585 0.378 7.699 0.316 15.177 2.159 22.761 3.256 6.825 0.986 13.641 1.03 20.399-0.594 0.262-0.063 0.532-0.105 0.8-0.122 0.153-0.01 0.31 0.051 0.763 0.134-3.968 1.517-11.752 1.89-11.777 2.229-0.024 0.576 7.698 0.877 11.547-0.099 1.099-0.278 2.257-0.317 3.385-0.484 0.974-0.144 1.854-0.434 2.667-1.087 1.287-1.035 2.564-0.289 3.788 0.305 0.397 0.193 0.77 0.437 1.155 0.658 0.061-0.1 0.121-0.199 0.183-0.298-0.4-0.288-0.799-0.576-1.198-0.864 0.02-0.057 0.042-0.115 0.062-0.173 0.326 0.084 0.668 0.13 0.977 0.257 1.965 0.815 4.046 0.722 6.108 0.813 1.774 0.078 3.58-0.055 5.272 0.804-0.889-0.068-1.78-0.13-2.669-0.205-4.361-0.363-8.69 0.239-13.029 0.458-3.146 0.158-6.278 0.586-9.424 0.751-2.114 0.11-4.252-0.177-6.36-0.027-4.211 0.298-8.342-0.597-12.527-0.669-1.706-0.03-3.422-0.583-5.1-1.028-4.882-1.293-9.854-1.69-14.874-1.537-2.007 0.062-3.895-0.116-5.642-1.207-0.385-0.241-0.916-0.327-1.384-0.345-2.39-0.089-4.788-0.041-7.167-0.233-1.16-0.094-2.423-0.386-3.4-0.982-1.839-1.123-3.788-1.641-5.878-1.718-2.47-0.092-4.843-0.633-7.21-1.294-1.675-0.468-3.374-0.865-5.077-1.219-2.306-0.481-4.631-0.668-6.967-0.156-0.37 0.081-0.754 0.137-1.131 0.139-1.076 6e-3 -1.666-0.362-1.88-1.417-0.442-2.175-1.845-3.112-3.918-3.223-1.779-0.095-3.396-0.654-4.987-1.414-0.872-0.416-1.825-0.71-2.774-0.903-0.725-0.147-1.529-0.131-2.033 0.689 0.276 0.761 0.964 0.835 1.564 1.008 2 0.575 3.57 1.744 4.788 3.409l-0.047-0.041c0.897 0.447 1.795 0.893 2.808 1.396 0 0 0.198-0.12 0.472-0.286 0.443 1.083 0.409 2.191 1.177 3.03 0.191 0.209-0.137 0.893-0.199 1.213 0.662 0.216 1.472 0.429 2.234 0.754 0.279 0.119 0.463 0.502-0.033 0.724l0.034-0.03c1.615 1.178 3.624 1.284 5.426 1.956 0.517 0.192 1.2 0.092 1.76-0.052 0.262-0.068 0.413-0.56 0.683-0.962-1.098-0.328-2.24-0.52-2.47-2.083 3.643-0.335 7.163-0.031 10.679 0.943-1.946-0.088-3.929-0.308-5.378 1.584 0.279 0.95 1.675 1.682 1.198 3.302-0.692-0.442-1.34-0.856-2.036-1.301 0.244 1.407 0.403 1.602 1.486 1.755 0.591 0.084 1.201 0.063 1.781 0.188 0.899 0.195 1.812 0.401 2.191 1.448 0.102 0.28 0.359 0.566 0.621 0.715 0.885 0.501 1.803 0.94 2.858 1.48 0.116-1.359-0.089-2.396-1.143-3.185 0.16-0.417 0.312-0.811 0.447-1.161 0.89 0.043 1.752 0.025 2.596 0.141 0.998 0.138 1.996 0.618 2.964 0.547 2.019-0.148 3.787 0.758 5.682 1.089 1.951 0.342 3.846 0.998 5.769 1.502 1.87 0.491 3.763 0.903 5.61 1.463 1.694 0.514 3.337 1.188 5.008 1.775 1.116 0.393 2.276 0.68 3.358 1.149 2.081 0.903 4.111 1.922 6.179 2.852 1.811 0.813 3.75 1.029 5.709 1.046 0.411 4e-3 0.822-0.243 1.238-0.353 1.332-0.354 2.623-0.215 3.863 0.498 0.04-0.115 0.08-0.23 0.121-0.345-0.957-0.539-1.914-1.078-3.055-1.72 1.776-0.235 3.152 0.384 4.348 1.239 1.161 0.831 2.133 1.927 3.348 3.054-0.142-1.063-0.734-1.744-1.267-2.429-0.528-0.68-1.125-1.308-1.594-2.086 1.223 0.26 2.34 0.498 3.426 1.192 1.251 0.801 4.884-2.255 6.322-1.78 2.035 0.672 4.155 0.904 6.282 1.146 2.363 0.27 6.137 2.177 8.5 2.458 2.255 0.269 0.982 2.452 3.25 2.601 0 0 5.203-0.825 6.268-1.718" fill="#1d1d1b"/></g><g transform="translate(79.348 193.59)"><path d="m0 0c-0.187-0.069 0.839-0.745 1.063-1.492 0.214-0.71-0.845-1.381-0.43-1.742 0.415-0.36 1.979 0.312 2.882 0.275 0.91-0.038 1.805-0.362 2.717-0.471 3.008-0.361 6.027-0.575 9.055-0.332 0.48 0.038 1.629 0.268 1.629 0.522s-0.515 0.528-0.719 0.576c-1.586 0.319-3.157 0.724-4.811 0.348-0.72-0.164-1.532-0.259-2.237-0.097-1.671 0.384-3.295 0.969-4.952 1.419 0 0-3.949 1.18-4.197 0.994m71.496 3.066c-0.976-0.282-1.783-0.778-2.32-1.718 1.273-0.41 3.425-0.549 4.352-0.23 0.241 0.083 0.392 0.423 0.585 0.644 2.865-0.808 5.764-1.206 8.625-0.637-0.054-0.701-0.102-1.305-0.15-1.92 1.361-0.292 2.447-0.162 3.509 0.387 0.867 0.449 1.782 0.803 2.666 1.219 0.391 0.183 1.061 0.39 1.082 0.632 0.079 0.904 0.914 0.514 1.375 0.821-0.446 0.794-1.104 0.791-1.732 0.729-0.645-0.063-1.292-0.188-1.918-0.359-3.596-0.985-7.24-1.317-10.954-0.909-0.874 0.096-1.616 0.163-1.611 1.347 2e-3 0.285-0.483 0.727-0.824 0.83-1.042 0.314-2.035 0.223-2.685-0.836m-51.546-1.62c-4.098-0.314-7.937 1.114-11.889 1.779-0.639 0.107-1.258 0.329-1.883 0.51-0.917 0.266-1.505 0.679-1.358 1.843 0.116 0.923-0.659 1.511-1.448 1.755-1.026 0.317-2.108 0.529-3.178 0.604-1.392 0.098-2.696 0.178-4.021 0.86-1.348 0.696-2.868 1.438-4.521 0.737-0.188-0.08-0.357-0.207-0.589-0.345 0.716-0.768 1.535-1.184 2.466-1.249 0.929-0.064 1.737-0.453 2.598-0.685 2.137-0.575 3.993-1.68 5.862-2.749 3.216-1.84 6.693-2.772 10.308-3.355 2.574-0.416 5.136-0.904 7.694-1.405 0.4-0.079 0.856-0.31 1.109-0.617 1.052-1.276 2.527-1.55 3.972-1.463 3.737 0.225 7.478 0.506 11.186 1.004 3.259 0.438 6.461 1.291 9.715 1.782 1.712 0.258 3.443 0.455 5.228 0.285 1.792-0.17 3.628 0.13 5.388 0.221 0.055 0.528-0.033 0.992 0.158 1.209 0.293 0.332 0.807 0.73 1.178 0.687 2.206-0.259 4.024 0.727 5.873 1.651 0.486 0.244 0.961 0.51 1.443 0.762 1.413 0.74 2.861 1.253 4.514 1.063 0.84-0.098 1.73-0.154 2.317 0.788 0.168 0.27 0.736 0.29 1.182 0.446-0.538 0.438-0.965 0.959-1.514 1.193-0.825 0.352-1.724 0.6-2.615 0.707-0.624 0.074-1.298-0.108-1.927-0.268-1.492-0.38-2.981-0.461-4.516-0.301-2.757 0.287-5.531 0.419-8.285 0.73-1.765 0.199-2.283 0.561-3.357 1.776 0.327 0.304 0.63 0.833 0.997 0.881 1.333 0.173 2.402 1.231 3.985 0.786 1.032-0.289 2.303 0.296 3.471 0.457 0.626 0.087 1.272 0.2 1.893 0.139 3.346-0.331 6.694-0.658 10.028-1.09 3.25-0.421 6.291-1.636 9.358-2.718 0.541-0.19 1.005-0.631 1.468-1.003 1.74-1.399 3.718-1.971 5.916-1.646 2.931 0.434 5.84 1.063 8.783 1.358 2.199 0.22 6.529 0.149 6.768 0.043 0.238-0.106-0.052-1.029 0.21-1.041 0.587-1e-3 3.065 1.756 3.532 4.453 0.187 0.075 0.244-0.024 0.375-0.041 0.131-0.015 0.5-0.559 0.455-0.778-0.127-0.625-0.378-1.232-0.645-1.817-0.13-0.286-0.526-0.48-0.591-0.763-0.378-1.668-1.727-1.734-3.024-1.93-0.851-0.129-1.694-0.303-2.541-0.457-0.477-0.083-1.367-0.017-1.429-0.247-0.094-0.156-0.136-0.273 0.105-0.351 0.241-0.077 1.208 0.592 1.359 0.488 0.152-0.105-0.11-1.461-0.384-1.559-0.275-0.097-1.372-0.489-2.081-0.736-1.395-0.486-2.638-1.14-3.718-2.236-1.054-1.07-2.325-1.975-3.625-2.742-2.152-1.268-4.385-2.405-6.622-3.521-1.426-0.713-2.975-0.701-4.46-0.215-1.639 0.537-3.047 0.302-4.468-0.679-0.927-0.64-1.999-1.131-3.072-1.487-2.787-0.923-5.604-1.758-8.425-2.572-0.666-0.192-1.4-0.249-2.096-0.219-1.079 0.045-1.318 0.369-1.478 1.49-0.057 0.404-0.224 0.793-0.349 1.216 2.827-0.275 5.596 0.765 8.445 1.198 1.379 0.209 2.75 0.975 3.93 1.774 0.583 0.394 1.098 0.275 1.959 0.352-0.467 0.442-0.676 0.75-0.965 0.893-0.771 0.377-1.554 0.754-2.371 1.005-3.274 1.007-6.543 1.544-9.799-0.142-1.642-0.849-3.325-1.621-5.014-2.373-4.456-1.984-9.07-2.965-13.981-2.28-1.165 0.162-2.41 0.109-3.57-0.104-7.298-1.343-14.619-1.218-21.95-0.429-3.893 0.419-7.772 0.974-11.668 1.362-1.445 0.144-2.95 0.163-4.377-0.07-6.719-1.093-13.469-1.887-20.261-2.283-2.711-0.158-5.438-0.125-8.155-0.061-2.792 0.066-5.513-0.101-8.216-0.957-1.364-0.433-2.895-0.506-4.344-0.47-3.482 0.088-6.953 0.193-10.43-0.19-1.173-0.129-2.391-7e-3 -3.569 0.149-0.721 0.095-1.59 0.312-1.23 1.463 0.022 0.07 0.169 0.274 0.287 0.367 0.117 0.095 0.463 0.078 0.893 0.078 2.178-0.126 4.327 0.061 6.494 0.329 1.981 0.244 4.004 0.139 6.009 0.181 2.029 0.042 4.045-0.377 6.069 0.504 1.609 0.7 3.414 0.949 5.327 1.449-0.551 0.551-0.998 0.465-1.461 0.378-1.389-0.262-2.807-0.413-4.164-0.788-1.526-0.422-3.461 0.714-3.558 1.529-0.028 0.352 1.824 0.293 2.608 0.36 2.086 0.179 4.191 0.078 6.201 0.954 0.722 0.314 1.696 0.202 2.528 0.089 3.071-0.418 6.159-0.251 9.225-0.16 1.931 0.057 3.859 0.405 5.808 0.215 0.481-0.047 0.961-0.12 1.443-0.134 0.784-0.022 1.569-6e-3 2.67-6e-3 -0.557 0.594-0.847 0.903-1.347 1.435 1.045 0.322 1.881 0.579 3.067 0.944-1.148 0.522-2.034 0.925-3.276 1.49 2.317 0.606 4.295-0.324 6.266 0.189-0.107 0.341-0.181 0.579-0.267 0.853 0.154 0.034 0.315 0.121 0.449 0.091 2.173-0.485 4.341-0.991 6.515-1.476 0.649-0.145 1.302-0.523 2.167-0.042-0.373 0.249-0.608 0.432-0.866 0.574-0.525 0.288-1.224 0.241-1.482 1.035-0.084 0.26-0.738 0.375-1.15 0.485-2.573 0.679-5.147 1.353-7.728 1.997-0.789 0.197-1.609 0.449-2.401 0.408-1.7-0.088-3.18 0.445-4.673 1.159-3.089 1.479-6.226 2.855-9.32 4.323-0.659 0.313-2.112 1.175-2.2 1.533-0.088 0.359 1.352 0.402 1.549 0.933 0.197 0.53-1.923 1.522-1.905 2.078s3.581-0.389 4.122 0c0.542 0.389-0.345 1.554-0.131 1.998 0.215 0.444 1.524-0.018 2.193-0.266 3.876-1.437 7.761-2.856 11.593-4.405 3.83-1.549 7.578-3.301 11.409-4.848 2.057-0.83 4.19-1.501 6.332-2.085 1.886-0.514 3.828-0.825 5.751-1.191 0.928-0.176 1.639-0.502 1.805-1.569 0.127-0.82 0.685-0.82 1.359-0.603 1.015 0.327 2.051 0.589 3.204 0.62-0.183-0.156-0.366-0.311-0.547-0.467-0.095-0.052-0.193-0.106-0.291-0.159-0.62-0.227-1.24-0.455-1.86-0.684z" fill="#1d1d1b"/></g><g transform="translate(370.78 49.546)"><path d="m0 0c0.076 0.082 0.151 0.163 0.228 0.245-1.517 1.422-3.034 2.845-4.55 4.267-0.1-0.107-0.199-0.214-0.299-0.321 1.318-1.636 3.073-2.802 4.621-4.191m-48.648 36.708c0.477-0.854 1.024-1.604 1.998-1.475 1.041 0.139 1.721-0.391 2.473-0.889 0.405-0.268 0.803-0.62 1.253-0.73 2.137-0.521 3.78-1.944 5.639-2.971 0.227-0.125 0.484-0.197 0.728-0.293l0.075 0.165c-0.521 0.537-1.042 1.073-1.811 1.864 1.001-0.25 1.573-0.393 2.147-0.536 0.037 0.123 0.075 0.245 0.113 0.368-0.478 0.203-0.954 0.406-1.432 0.609-0.287 0.123-0.73 0.17-0.836 0.384-0.517 1.045-1.714 0.799-2.469 1.376-0.205 0.156-0.604 0.031-0.869 0.143-0.776 0.328-1.498 0.862-2.301 1.034-0.949 0.203-1.817 0.458-2.673 0.941-0.525 0.295-1.239 0.756-2.035 0.01m33.221-27.077c0.365-0.492 0.674-0.907 0.982-1.322-2.249 1.173-4.57 2.213-6.42 4.049-0.627 0.621-1.508 0.987-2.274 1.468-0.135 0.086-0.29 0.147-0.412 0.249-1.994 1.652-4.018 3.269-5.968 4.972-2.907 2.54-5.927 4.906-9.337 6.75-0.559 0.303-1.018 0.801-1.5 1.233-1.576 1.41-3.039 2.97-4.737 4.208-1.644 1.2-3.528 2.072-5.304 3.092-0.461 0.265-0.915 0.544-1.372 0.816l0.042-0.05c-0.057 0.43 3e-3 0.927-0.196 1.275-0.478 0.837-0.51 1.609 0.298 2.591-0.349 0.211-0.62 0.393-0.907 0.545-1.069 0.561-2.115 0.209-3.113-0.175-2.412-0.931-3.238-0.635-4.446 1.647-0.42 0.792-0.925 1.539-1.519 2.518-0.427-1.048-0.058-1.659 0.315-2.219 0.771-1.157 1.579-2.291 2.404-3.41 1.606-2.18 3.221-4.352 4.861-6.505 0.318-0.419 0.706-0.88 1.166-1.079 1.215-0.526 2.488-0.919 3.989-1.456-0.448 0.82-0.785 1.424-1.11 2.033-0.585 1.096-1.164 2.195-1.745 3.293l-0.042-0.052c0.74-0.592 1.595-1.086 2.199-1.795 2.22-2.605 4.364-5.276 6.521-7.935 0.798-0.984 1.531-2.024 2.718-3.185-0.102 0.749-0.147 1.084-0.195 1.438 0.16-0.027 0.308-0.011 0.343-0.066 0.452-0.71 1.076-0.991 1.923-0.966 0.914 0.028 1.57-0.437 1.791-1.355 0.267-1.104 0.528-2.213 0.701-3.334 0.062-0.399 0.011-1.005-0.242-1.228-0.794-0.699-0.561-1.411-0.27-2.192 0.32-0.86 0.613-1.729 1.021-2.887 0.129 0.455 0.147 0.641 0.232 0.79 0.145 0.259 0.332 0.493 0.501 0.738 0.274-0.217 0.641-0.381 0.8-0.664 0.208-0.366 0.292-0.82 0.357-1.247 0.283-1.881 0.681-3.758 0.779-5.65 0.216-4.124 0.282-8.257 0.395-12.387 0.053-1.971-0.577-3.751-1.649-5.376-0.654-0.994-0.967-0.938-1.663 0.275 1.797 0.996 2.198 2.684 2.163 4.571-0.061 3.308-0.087 6.591-0.918 9.859-0.908 3.569-1.408 7.24-2.135 10.857-0.209 1.039-0.59 2.045-0.913 3.137-2.783-0.871-4.212 1.055-5.834 2.382-0.953 0.78-1.624 1.894-2.469 2.814-1.032 1.124-1.209 1.13-2.37 0.083-0.913-0.822-1.89-1.278-3.119-0.819-1.268 0.473-2.121 1.263-2.227 2.717-0.217 2.994-1.323 5.669-2.843 8.242-1.655 2.805-3.092 5.739-4.705 8.571-0.41 0.721-1.038 1.398-1.724 1.865-0.998 0.682-1.502 1.548-1.567 2.699-0.045 0.807-9e-3 1.618-9e-3 2.488 1.398-0.714 2.274-2.235 4.079-1.79 0.276 0.068 0.787-0.443 1.047-0.792 0.312-0.416 0.392-1.026 1.169-1.04 0.3 0.873-0.799 1.274-0.681 2.147 0.462 0.396 1.041 0.632 1.715 0.433 0.499-0.146 0.946-0.232 1.349 0.196 0.065 0.069 0.22 0.131 0.295 0.101 1.859-0.748 3.97-0.461 5.716-1.939 2.138-1.812 4.684-3.136 6.996-4.754 1.762-1.233 3.779-1.921 5.659-2.898 0.753-0.392 1.462-0.867 2.197-1.295 0.66-0.384 1.402-0.475 2.082-0.985 1.034-0.775 2.391-1.169 3.661-1.566 2.054-0.641 3.916-1.682 5.81-2.65 1.541-0.788 2.967-1.799 4.504-2.598 1.73-0.9 3.522-1.685 5.301-2.493 0.485-0.221 1.015-0.344 1.758-0.588-0.437-0.72-0.812-1.338-1.243-2.049 1.421-0.982 3.02-1.656 4.76-2.037 0.054 0.243 0.097 0.437 0.154 0.697 2.113-0.755 4.196-1.5 6.278-2.246 0.46-0.165 0.907-0.379 1.379-0.497 0.988-0.247 1.286-0.141 2.243 0.694 2-0.995 4.025-2.032 6.076-3.017 2.06-0.99 4.133-1.95 6.218-2.884 2.135-0.957 4.281-1.887 6.439-2.789 2.108-0.882 4.235-1.717 6.357-2.564 2.123-0.847 4.274-1.625 6.367-2.539 2.049-0.896 4.344-1.198 6.42-2.475-0.957-1.033-1.895-0.877-2.835-0.552-2.876 0.996-5.761 1.97-8.615 3.027-8.217 3.041-16.245 6.525-24.087 10.433-0.707 0.352-1.39 0.872-2.368 0.6 0.153-0.679 0.75-0.783 1.184-1.012 6.022-3.168 12.239-5.915 18.569-8.391 4.656-1.821 9.378-3.471 14.094-5.13 1.526-0.536 3.124-0.862 4.774-1.307-0.352-0.756-0.984-0.856-1.541-0.803-1.4 0.135-2.827 0.237-4.172 0.607-5.832 1.604-11.475 3.763-17.051 6.085-6.179 2.574-12.289 5.3-18.143 8.566-1.306 0.729-2.679 1.142-4.2 1.128-1.775-0.018-3.403 0.588-5.012 1.302-2.381 1.058-4.793 2.049-7.209 3.03-0.368 0.15-0.82 0.092-1.232 0.13 0.342 0.623-0.176 0.866-0.523 1.183-1.04 0.95-2.087 1.892-3.116 2.855-0.19 0.178-0.303 0.44-0.628 0.927 0.731-0.283 1.122-0.467 1.531-0.584 0.353-0.101 0.728-0.125 1.093-0.183-2.223 1.796-4.543 3.212-7.46 3.244 1.284-1.157 2.645-2.19 3.976-3.262 1.341-1.08 2.651-2.198 3.975-3.3-2.206 0.229-3.99 1.189-5.584 2.546-1 0.849-2.055 1.686-3.45 1.612-1.159-0.062-2.105 0.342-3.019 0.951-0.446 0.774 0.79 0.409 0.734 0.656-0.654 0.777-1.11 1.335-1.584 1.876-0.247 0.281-0.507 0.556-0.795 0.795-0.899 0.749-1.911 0.268-2.943 0.367 0.652-0.789 1.322-1.407 1.745-2.162 0.465-0.83 1.944-0.375 1.913-1.703 0.348 0.077 0.661 0.146 0.975 0.215 0.08-0.343 0.049-0.794 0.259-1.012 1.066-1.108 2.142-2.219 3.314-3.211 1.866-1.579 4.121-2.502 6.587-3.82-0.307 1.067-0.509 1.773-0.776 2.707 1.016-0.284 1.774-0.535 2.551-0.698 0.385-0.08 0.805 1e-3 1.208 9e-3 -0.215-0.557 0.229-0.734 0.545-1.026 0.511-0.471 1.048-0.95 1.41-1.528 0.235-0.375 0.178-0.931 0.285-1.617 0.419-0.285 1.058-0.793 1.764-1.182 1.434-0.79 2.869-1.594 4.367-2.243 1.511-0.654 2.604-1.601 2.758-3.286 0.131-1.426 0.922-2.407 1.892-3.303 2.035-1.88 4.024-3.821 6.163-5.578 1.75-1.439 3.689-2.647 5.728-3.776-0.241 0.649-0.48 1.299-0.827 2.238 1.513-0.595 2.68-1.132 3.897-1.509 1.228-0.38 2.506-0.601 3.901-0.924-0.249-0.608-0.422-1.031-0.673-1.645 0.799-0.15 1.559-0.292 2.41-0.451-0.188-1.039-0.945-1.476-1.77-1.636-0.777-0.15-1.63-0.148-2.41-3e-3 -4.654 0.865-8.747 2.886-12.236 6.105-1.239 1.142-2.503 2.255-3.738 3.402-1.186 1.101-2.458 1.879-4.184 1.898-0.75 9e-3 -1.623 0.405-2.216 0.896-1.285 1.067-2.426 2.308-3.627 3.478 0.76-0.408 1.52-0.815 2.533-1.358" fill="#1d1d1b"/></g><g transform="translate(358.22 196.21)"><path d="m0 0c0 0.675 2.175 8e-3 2.335 2.866 0.305 1.127 1.392 1.677 2.4 1.605 1.032-0.073 1.806 0.027 2.347 0.957 0.678-0.285 1.1-0.755 1.872-0.432 0.75 0.314 1.684 0.203 2.538 0.252 1.607 0.09 3.165 0.504 4.74 0.72 2.874 0.394 5.736 0.858 8.597 1.318 1.584 0.255 3.136 0.582 4.682 1.124 2.661 0.934 5.327 1.937 8.223 2.089 1.708 0.089 3.405 0.475 5.091 0.806 0.682 0.134 1.079 0.663 1.219 1.384 0.056 0.286 0.225 0.623 0.45 0.788 0.731 0.535 1.359 0.216 1.444-0.731 0.114-1.259-0.268-2.416-1.151-3.285-0.683-0.671-1.492-1.328-2.371-1.667-2.475-0.953-5.01-1.751-7.529-2.586-0.914-0.303-1.911-0.388-2.305-1.541-0.11-0.324-0.661-0.498-1.305-0.946 0.578-0.096 0.872-0.145 1.175-0.2 9e-3 -5e-3 -0.021 0.014-0.021 0.014 0.054-0.503 0.343-0.587 0.798-0.506 0.827 0.148 1.43-0.15 1.916-0.877 0.224-0.336 0.731-0.483 1.097-0.707-0.036-0.109-0.048-0.201-0.069-0.203-2.47-0.286-4.84-1.107-7.359-1.206-2.759-0.109-5.505-0.524-8.263-0.737-2.383-0.184-4.774-0.281-7.162-0.392-0.369-0.017-0.846-0.027-1.1 0.176-1.153 0.919-2.373 0.508-3.597 0.31-1.821-0.295-3.641-0.607-5.469-0.854-1.076-0.145-2.096-0.072-2.374 1.318-0.029 0.142-0.32 0.23-0.745 0.516 0 0-0.104-0.048-0.104 0.627" fill="#1d1d1b"/></g><g transform="translate(227.43 238.65)"><path d="m0 0c2.424-0.257 17.807-8.029 20.215-9.838-1.845 0.215-3.534 0.79-5.251 0.561-0.014-0.126-0.029-0.252-0.044-0.379 1.185-0.501 2.378-1.986 3.553-2.511 0.792-0.354 1.605-0.696 2.327-1.168 0.997-0.652 1.083-1.96 0.286-2.836-0.46-0.505-0.952-0.337-1.489-0.134-1.526 0.577-3.081 2.081-4.595 2.688-1.39 0.556-2.645 0.521-3.79-0.528-0.158-0.146-0.381-0.223-0.533-0.374-1.257-1.258-2.758-2.375-4.394-2.002-6.335 1.444-12.761 3.128-19.249 3.313-1.279 0.037-2.59 0.062-4.058 0.82 0.619 0.316 1.002 0.611 1.43 0.709 0.791 0.182 1.606 0.324 2.416 0.35 6.057 0.194 12.063-0.243 18.009-1.481 1.152-0.24 2.37-0.293 3.551-0.247 1.342 0.052 1.49 0.41 0.948 1.647-0.083 0.191-0.168 0.381-0.308 0.698 0.278 0.183 0.544 0.358 0.823 0.542-0.155 0.212-0.224 0.418-0.341 0.45-1.62 0.454-3.226 0.998-4.876 1.293-2.625 0.468-4.451 2.109-6.282 3.789 0.697 1.218 1.277 1.553 2.522 1.095 2.037-0.75 4.021-1.647 6.015-2.51 0.542-0.235 1.041-0.57 1.655-0.754-0.209 0.682-0.753 1.044-1.368 1.3-1.506 0.626-2.999 1.302-4.545 1.814-1.769 0.585-2.334 1.902-2.627 3.693" fill="#1d1d1b"/></g><g transform="translate(197.4 235.73)"><path d="m0 0c-0.457 0.049-1.394 0.269-2.068 0.388-0.852 0.151-1.72 0.219-2.565 0.399-0.223 0.047-0.9 0.494-0.834 0.83 0.067 0.336 1.275 0.176 1.718 0.118 2.91-0.377 5.814-0.788 8.719-1.198 0.321-0.045 0.728-0.051 0.934-0.245 1.991-1.88 4.632-1.554 7.008-2.054 2.865-0.602 5.778-0.974 8.668-1.467 0.446-0.076 0.875-0.26 1.304-0.669-1.073-0.214-2.148-0.428-3.321-0.662 0.136-0.457 0.234-0.788 0.354-1.194-0.289-0.082-0.544-0.228-0.792-0.215-2.222 0.122-4.454 0.181-6.662 0.438-2.59 0.302-5.095 0.966-7.599 1.769-2.566 0.823-5.308 1.119-7.988 1.556-3.106 0.506-6.192 1.144-9.384 1.052-1.209-0.036-2.436 0.457-3.649 0.737-1.163 0.268-2.322 0.561-3.477 0.862-0.667 0.175-1.644 0.984-1.644 1.366s1.06 0.447 1.585 0.43c3.259-0.107 6.516-0.277 9.772-0.455 0.283-0.016 0.759-0.207 0.798-0.391 0.23-1.073 1.035-0.922 1.788-0.968 2.437-0.146 4.873-0.31 7.317-0.464 0.986-0.109 1.942-0.334 2.928-0.443 0.542-0.062 1.576-0.134 1.635-0.087s0.115 0.337-4e-3 0.359c-0.12 0.023-1.119-0.223-1.64-0.188-0.151 0.031-0.666 0.435-1.032 0.489-0.715 0.107-1.455-0.105-1.869-0.093" fill="#1d1d1b"/></g><g transform="translate(307.27 43.924)"><path d="m0 0c-0.298 0.376 0.742 5.364 0.139 5.396-0.603 0.033-1.223-0.972-1.719-0.998-0.495-0.025-0.187 1.247-0.13 1.851 0.419 4.439 0.865 8.876 1.285 13.316 0.087 0.919 0.13 1.846 0.141 2.769 0.011 0.896 0.292 1.515 1.181 1.927 0.976 0.452 1.1 1.129 0.619 2.142-0.246 0.516-1.244 1.608-0.487 1.733 0.757 0.126 0.727-0.326 0.896-0.541 0.447-0.567 0.747-0.788 1.48-0.631 0.845 0.182 1.243-0.3 1.269-1.068 0.076-2.387 0.28-4.787 0.126-7.161-0.275-4.231-0.753-8.45-1.196-12.669-0.124-1.185-0.333-2.378-0.667-3.519-0.221-0.759-0.666-1.481-1.132-2.132-0.388-0.541-1.507-0.791-1.805-0.415" fill="#1d1d1b"/></g><g transform="translate(307.93 140.04)"><path d="m0 0c1.511 0.699 3.022 1.397 4.764 2.202 0.477-0.19 0.449-0.692 0.109-1.302-0.395-0.709-0.803-1.414-1.159-2.143-0.54-1.105-0.69-2.288-0.482-3.493 0.315-1.818 0.67-3.629 1.025-5.439 0.036-0.187 0.183-0.352 0.351-0.661 0.546 0.518 0.324 1.08 0.401 1.562 0.22 1.367-0.067 2.863 0.967 4.026 0.42 0.472 0.899 0.892 1.587 1.201-0.313-0.817-0.674-1.62-0.93-2.455-0.349-1.136-0.668-2.287-0.908-3.451-0.306-1.479-0.547-2.973-0.768-4.468-0.403-2.729-0.19-5.428 0.683-8.04 0.364-1.089 0.417-2.111 0.03-3.169-0.352-0.964-0.369-1.87 0.146-2.821 0.255-0.472 0.221-1.101 0.319-1.659l-0.337-0.103c-0.098 0.189-0.217 0.37-0.288 0.568-0.798 2.188-1.725 4.341-2.341 6.58-0.63 2.287-0.949 4.659-1.412 6.993-0.265 1.333-0.712 2.532-1.657 3.614-0.626 0.717-0.982 1.792-1.15 2.76-0.286 1.644-0.352 3.328-0.467 4.998-0.077 1.128-0.169 2.239 0.86 3.136 0.403 0.352 0.495 1.063 0.73 1.61l-0.073-0.046" fill="#1d1d1b"/></g><g transform="translate(280.18 66.055)"><path d="m0 0c1.443 2.263 2.508 4.484 2.48 7.305-0.753-0.879-0.68-1.817-0.911-2.639-0.266-0.948-0.663-1.721-1.935-1.829-0.035 0.351-0.147 0.705-0.089 1.028 0.193 1.068 0.424 2.132 0.684 3.186 0.743 3.011 1.311 6.048 1.468 9.153 0.044 0.868 0.212 1.697 1.087 2.586 0.186-0.688 0.32-1.166 0.445-1.646 0.239-0.915 0.289-1.821 1.259-2.497 0.489-0.34 0.567-1.453 0.594-2.225 0.034-0.966-0.155-1.944-0.284-2.913-0.293-2.207-0.593-4.412-0.917-6.615-0.277-1.888-1.953-3.206-3.881-2.894" fill="#1d1d1b"/></g><g transform="translate(287.53 192.73)"><path d="m0 0c-0.904 0.292-1.835 0.518-2.706 0.888-2.945 1.254-5.881 2.529-8.792 3.862-0.976 0.446-1.849 1.113-2.797 1.629-0.514 0.28-1.087 0.448-1.63 0.677-0.905 0.382-1.98 0.442-2.163 1.849-0.058 0.451-1.02 0.851-1.633 1.138-0.365 0.172-0.855 0.085-1.288 0.107-0.65 0.034-1.139 0.172-1.219 0.996-0.042 0.433-0.392 0.837-0.658 1.364 0.236-0.073 0.459-0.121 0.665-0.211 3.039-1.321 6.109-2.579 9.1-4.002 1.56-0.742 2.978-1.783 4.468-2.674 0.606-0.363 1.215-0.735 1.86-1.015 0.377-0.162 0.97-0.355 1.221-0.181 0.827 0.575 1.3 0.084 1.824-0.398 1.307-1.202 2.61-2.408 3.915-3.612-0.056-0.139-0.111-0.278-0.167-0.417" fill="#1d1d1b"/></g><g transform="translate(270.29 66.715)"><path d="m0 0c1.4 2.12 2.638 3.994 3.875 5.867-0.084 0.092-0.169 0.186-0.253 0.279-0.257-0.165-0.6-0.271-0.756-0.503-0.517-0.763-0.913-1.609-1.457-2.349-0.454-0.617-1.05-1.13-1.582-1.69l-0.261 0.228c0.615 0.925 1.224 1.855 1.845 2.776 1.377 2.043 2.391 4.25 3.099 6.612 0.498 1.663 1.043 3.314 1.65 4.94 0.215 0.574 0.676 1.056 1.244 1.909 0.09-0.868 0.137-1.316 0.197-1.897 1.129 0.536 0.75 2.081 1.864 2.518-0.446-5.417-5.865-17.502-9.465-18.69" fill="#1d1d1b"/></g><g transform="translate(224.89 233.32)"><path d="m0 0c0.484-0.454 0.971-0.911 1.721-1.615-0.772 0.061-1.232 0.055-1.676 0.138-4.052 0.765-8.097 1.563-12.153 2.305-0.834 0.153-1.703 0.112-2.55 0.161-0.063 0.178-0.085 0.576-0.247 0.645-1.243 0.528-2.505 1.019-3.78 1.466-0.874 0.305-1.557 0.699-1.494 1.987 1.079-0.166 2.09-0.256 3.068-0.485 3.382-0.793 6.76-1.603 10.123-2.472 1.728-0.446 3.474-0.906 4.84-2.19 0.192-0.181 0.45-0.305 0.694-0.419 0.759-0.354 0.866-0.311 1.454 0.479" fill="#1d1d1b"/></g><g transform="translate(141.37 209.4)"><path d="m0 0c0.456 0.196 0.896 0.456 1.371 0.578 2.028 0.519 4.078 0.461 6.143 0.214 1.34-0.16 2.694-0.218 4.043-0.295 2.515-0.144 4.933-0.724 7.282-1.605 0.182-0.069 0.322-0.245 0.498-0.384-0.866-1.204-1.883-1.561-3.283-1.14-4.197 1.259-8.594 1.096-12.884 1.714-1.039 0.149-2.076 0.314-3.114 0.472-0.018 0.149-0.037 0.297-0.056 0.446" fill="#1d1d1b"/></g><g transform="translate(278.43 50.117)"><path d="m0 0c0.193 0.76 0.361 1.42 0.529 2.081-0.095 0.047-0.191 0.095-0.286 0.142-0.703-1.097-1.405-2.194-2.108-3.29-0.095 0.039-0.19 0.078-0.286 0.117 0.096 0.368 0.133 0.765 0.297 1.101 1.778 3.656 3.591 7.295 5.354 10.958 0.248 0.513 0.28 1.13 0.406 1.701 0.157 0.71 0.017 1.552 0.844 1.978 0.869-0.867 0.869-0.867 0.059-3.846 0.484 0.682 0.81 1.141 1.137 1.601 0.081-0.012 0.162-0.023 0.243-0.035-0.052-0.373-0.03-0.776-0.17-1.112-1.078-2.604-2.177-5.199-3.294-7.787-0.408-0.945-0.875-1.865-1.325-2.793-0.264-0.544-0.603-0.98-1.4-0.816" fill="#1d1d1b"/></g><g transform="translate(356.3 190.1)"><path d="m0 0c1.223 0.877 2.392 1.245 3.6 1.422 1.729 0.253 3.463 0.375 5.231 0.362 1.764-0.013 3.531 0.459 5.296 0.729 1.488 0.228 2.974 0.471 4.49 0.582-2.314-1.477-4.797-2.479-7.463-3.031-2.016-0.416-4.018-0.912-6.048-1.246-0.763-0.126-1.608 0.011-2.377 0.194-0.867 0.207-1.689 0.601-2.729 0.988" fill="#1d1d1b"/></g><g transform="translate(318.44 98.749)"><path d="m0 0c-2.434 1.754-4.49 10.049-3.338 13.458 1.357-0.135 1.552-0.251 1.813-1.343 0.163-0.685 0.175-1.406 0.343-2.089 0.556-2.265 1.108-4.533 1.749-6.775 0.432-1.508 0.401-2.063-0.567-3.251" fill="#1d1d1b"/></g><g transform="translate(325.67 91.358)"><path d="m0 0c0.025 0.571 0.077 0.999 0.053 1.421-0.022 0.362-0.13 0.718-0.25 1.331 4.619-1.671 9.291-2.564 13.535-4.762-0.784-1.404-0.963-1.484-2.022-1.189-3.282 0.916-6.568 1.815-9.851 2.727-0.466 0.13-0.922 0.296-1.465 0.472" fill="#1d1d1b"/></g><g transform="translate(232.5 229.54)"><path d="m0 0c-0.188-0.324-0.26-0.448-0.365-0.63 1.123-0.435 2.18-0.701 3.176-0.015 0-0.599-0.042-1.116 9e-3 -1.624 0.092-0.913-0.115-1.247-0.994-1.254-1.251-0.01-2.466 0.188-3.621 0.902 0.269 0.517 0.511 0.979 0.728 1.393-0.369 0.934-1.167 0.864-1.829 0.954-2.905 0.393-5.817 0.738-8.726 1.104-0.638 0.08-1.275 0.173-1.896 0.402 4.656 1.076 9.089-0.148 13.518-1.232" fill="#1d1d1b"/></g><g transform="translate(263.68 220.46)"><path d="m0 0 0.098-0.125c-0.583 0.732-1.166 1.465-1.75 2.198 0.046 0.059 0.091 0.118 0.136 0.177 0.444-0.259 0.905-0.494 1.33-0.781 2.473-1.671 4.918-3.382 7.415-5.015 0.896-0.588 1.915-0.988 2.866-1.494 0.894-0.475 1.774-0.977 2.745-1.515-0.284-0.444-0.445-0.695-0.647-1.008 0.48-0.58 0.974-1.175 1.467-1.77-0.081-0.09-0.161-0.18-0.243-0.271-4.591 3.03-8.931 6.422-13.417 9.604" fill="#1d1d1b"/></g><g transform="translate(255.84 210.76)"><path d="m0 0c0.487-1.016 0.726-1.96 0.304-3.23-1.722 1.629-3.308 3.129-5.169 4.89 0.034-1.784 0.707-2.931 1.302-4.219-1.378-0.168-2.343 0.412-3.156 1.195-0.538 0.518-0.239 1.098 0.958 1.979-0.547 0.929-1.107 1.877-1.766 2.995 0.497 0.14 0.84 0.345 1.153 0.306 0.997-0.123 1.871-0.538 2.527-1.338 0.379-0.462 0.768-0.915 1.156-1.37 0.701-0.822 1.57-1.305 2.691-1.208" fill="#1d1d1b"/></g><g transform="translate(103.09 195.67)"><path d="m0 0c0.098 0.053 0.196 0.106 0.291 0.159 0.677 0.142 1.356 0.283 2.147 0.448-0.137-0.385-0.237-0.667-0.387-1.088 2.186 0.12 4.295 0.598 6.567 0.269-0.469-0.785-0.746-1.505-1.245-2.006-0.415-0.417-1.136-0.876-1.643-0.799-2.556 0.388-5.087 0.943-7.626 1.451-0.083 0.016-0.142 0.15-0.262 0.286 0.114 0.203 0.239 0.425 0.363 0.646l-0.065-0.05 1.86 0.684" fill="#1d1d1b"/></g><g transform="translate(515.14 212.75)"><path d="M 0,0 C 1.022,1.186 2.15,1.74 3.514,1.559 5.66,1.274 7.795,0.898 9.926,0.516 10.745,0.369 11.399,-0.055 11.714,-1.104 7.699,-1.4 3.91,-1.049 0,0" fill="#1d1d1b"/></g><g transform="translate(307.93 140.04)"><path d="m0 0 0.073 0.046c-0.515-0.055-0.677 0.249-0.676 0.689 0.01 1.807-0.19 3.578-0.809 5.29-0.291 0.805 0.369 1.16 0.799 1.62l-0.074-0.044 1.529 1.016c0.054 0.061 0.083 0.093 0.087 0.096 0.281 0.201 0.562 0.403 0.844 0.604 0.106-0.046 0.211-0.092 0.317-0.138-0.19-1.465-0.247-2.963-0.609-4.385-0.297-1.171-0.456-2.208 0.453-3.205-0.701-0.575-1.318-1.082-1.934-1.589" fill="#1d1d1b"/></g><g transform="translate(362.1 209.63)"><path d="m0 0c0.086-0.299 0.172-0.599 0.281-0.975 1.675 0.465 3.272 0.908 4.961 1.377 0.381-0.837-0.081-1.406-0.668-1.883-0.285-0.231-0.67-0.35-1.024-0.48-2.413-0.891-4.908-1.346-7.481-1.359-0.323-1e-3 -0.649 0.035-0.97 0.08-0.08 0.011-0.147 0.121-0.327 0.282 0.326 0.203 0.597 0.44 0.915 0.557 0.753 0.279 1.522 0.524 2.296 0.739 0.665 0.185 1.184 0.476 1.43 1.184 0.067 0.195 0.413 0.292 0.632 0.435z" fill="#1d1d1b"/></g><g transform="translate(284.58 158.49)"><path d="m0 0c-0.927 0.555-1.115 1.167-1.087 1.906 0.017 0.478 0.165 1.051-0.038 1.418-0.64 1.156-0.371 2.278-0.194 3.464 0.302 2.031 0.471 4.083 0.829 6.138 0-0.915-4e-3 -1.831 2e-3 -2.746 7e-3 -1.099 0.167-2.143 0.814-3.094 0.259-0.38 0.472-0.919 0.427-1.358-0.186-1.856-0.476-3.701-0.753-5.728" fill="#1d1d1b"/></g><g transform="translate(362.69 186.22)"><path d="m0 0c-0.153-0.156-0.416-0.566-0.791-0.766-0.514-0.275-0.969-0.011-1.164 0.523-0.322 0.883-0.995 0.998-1.816 1.012-1.567 0.027-3.132 0.146-4.7 0.199-0.726 0.025-1.089 0.469-1.246 1.072-0.063 0.246 0.055 0.696 0.244 0.822 0.475 0.318 0.974 0.628 1.624 0.166 0.609-0.432 1.325-0.725 2.017-1.025 1.302-0.564 2.566-1.003 4.037-0.295 1.154 0.555 1.863-0.091 1.795-1.708" fill="#1d1d1b"/></g><g transform="translate(340.61 211.95)"><path d="m0 0c-1.651-2.24-4.287-2.848-7.263-1.776 0.809 1.246 4.615 2.212 7.263 1.776" fill="#1d1d1b"/></g><g transform="translate(284.1 150.78)"><path d="M 0,0 C -0.043,1.45 0.338,2.805 1.239,4.606 2.961,4.644 3.413,4.374 3.769,3.24 3.992,2.532 3.84,2.051 3.114,1.86 2.392,1.67 1.861,1.379 1.61,0.575 1.389,-0.131 0.705,-0.043 0,0" fill="#1d1d1b"/></g><g transform="translate(306.23 207.23)"><path d="m0 0c1.425 0.02 2.687-0.315 3.794-0.882 0.534-0.274 0.738-1.191 1.101-1.832-1.165-0.693-2.114-1.347-3.283-0.55-0.489 0.334-0.907 0.642-0.945 1.372-0.031 0.597-0.4 1.176-0.667 1.892" fill="#1d1d1b"/></g><g transform="translate(350.93 208.88)"><path d="m0 0c2.604 0.321 5.16-0.637 7.73 0.151-1.265-1.636-3.123-1.484-4.828-1.698-1.252-0.157-2.064 0.732-2.902 1.547" fill="#1d1d1b"/></g><g transform="translate(318.27 192.38)"><path d="m0 0c2.28 0.695 4.399 1.34 6.651 2.026v-2.6c-0.405 0.18-0.793 0.245-1.016 0.472-0.666 0.676-1.377 0.637-2.044 0.137-1.166-0.874-2.282-0.521-3.591-0.035" fill="#1d1d1b"/></g><g transform="translate(283.12 90.882)"><path d="m0 0c0.26 0.325 0.52 0.649 0.775 0.97 0.212 0.263 0.429 0.531 0.644 0.799 0.101-0.057 0.201-0.114 0.302-0.171-0.388-1.984-1.564-3.646-2.473-5.412-0.219-0.425-0.644-0.744-1.16-0.991 0.201 1.808 1.533 3.117 1.912 4.805" fill="#1d1d1b"/></g><g transform="translate(337.12 86.597)"><path d="M 0,0 C -3.03,1.06 -6.061,2.121 -9.394,3.287 -7.342,3.515 -1.318,1.53 0.136,0.303 0.091,0.202 0.045,0.101 0,0" fill="#1d1d1b"/></g><g transform="translate(363 204.79)"><path d="m0 0c10.264 5.849 18.066 9.833 6.941 0.673-1.039-0.519-2.207-1.072-3.343-1.684-0.609-0.328-1.12-0.224-1.685 0.081-0.7 0.378-1.432 0.699-1.913 0.93" fill="#1d1d1b"/></g><g transform="translate(312.81 138.31)"><path d="m0 0c0.342-1.346 0.305-2.393-0.214-3.482-0.918 1.248-0.892 1.894 0.214 3.482" fill="#1d1d1b"/></g><g transform="translate(224.96 227.44)"><path d="m0 0c-1.653 0.091-3.306 0.182-4.991 0.274-0.043 0.268-0.081 0.51-0.147 0.927 1.768-0.319 3.478-0.626 5.189-0.934l-0.051-0.267" fill="#1d1d1b"/></g><g transform="translate(348.25 207.37)"><path d="m0 0c-0.191-0.233-0.245-0.368-0.326-0.387 3.552-1.474 0.628-1.331-3.744-0.744 1.245 0.594 2.246 2.01 4.07 1.131" fill="#1d1d1b"/></g><g transform="translate(308.77 148.66)"><path d="m0 0-1.529-1.017z" fill="#1d1d1b"/></g><g transform="translate(205.06 41.451)"><path d="m0 0c-0.146-0.291-0.293-0.582-0.439-0.872-0.067 0.028-0.134 0.056-0.201 0.084 0.118 0.312 0.236 0.623 0.354 0.935 0.096-0.049 0.191-0.098 0.286-0.147" fill="#1d1d1b"/></g><g transform="translate(101.09 195.67)"><path d="m0 0-1.86-0.684 1.86 0.684" fill="#1d1d1b"/></g></g></g></svg>
